<?xml version="1.0" encoding="utf-8"?>
<svg version="1.0" xmlns="http://www.w3.org/2000/svg" width="300.000000pt" height="300.000000pt" viewBox="0 0 300.000000 300.000000" preserveAspectRatio="xMidYMid meet">
  <g transform="translate(0.000000,300.000000) scale(0.050000,-0.050000)" fill="#22C55E" stroke="none">
    <path d="M 3308 5320 C 2585 5220 2111 4652 2272 4077 C 2439 3482 3407 3569 3409 4179 C 3410 4461 2891 4046 2782 3991 C 2709 3953 2724 3921 2815 3920 C 2843 3920 2860 3908 2860 3887 C 2860 3788 2575 3914 2508 4043 C 2232 4577 3133 5157 3766 4852 C 4268 4611 4480 3892 4239 3245 C 4071 2791 3595 2209 2804 1489 C 2682 1378 2690 1375 2581 1593 C 2479 1798 2305 1976 2010 2180 C 1484 2543 1350 3046 1705 3328 C 1900 3482 2260 3280 2260 3017 C 2260 2912 2301 2918 2356 3031 C 2531 3391 2159 3822 1778 3699 C 1371 3569 1154 3154 1239 2669 C 1292 2363 1426 2183 1831 1879 C 2277 1542 2390 1383 2463 987 C 2486 868 2507 751 2512 727 C 2534 610 2630 692 3560 1620 C 4797 2853 5077 3857 4449 4802 C 4176 5212 3791 5387 3308 5320 Z"/>
    <path fill="#F7B13C" d="M3140 3589 c-246 -86 -245 -77 -30 -257 229 -190 300 -195 608 -41 269 135 271 144 42 260 -205 104 -398 116 -620 38z m354 -91 l56 -21 -50 -41 c-60 -49 -223 -42 -276 12 -66 65 134 102 270 50z"/>
    <path d="M2606 3375 c-35 -54 -10 -539 34 -675 24 -73 48 -212 54 -317 13 -210 28 -230 130 -166 337 209 437 628 210 876 -219 240 -385 349 -428 282z m221 -236 c91 -108 117 -265 56 -340 -74 -92 -163 61 -163 281 0 139 28 154 107 59z"/>
  </g>
</svg>